<?xml version="1.0" encoding="UTF-8" standalone="no"?>
<svg
   id="Layer_1"
   enable-background="new 0 0 511.848 511.848"
   height="512"
   viewBox="0 0 511.848 511.848"
   width="512"
   version="1.1"
   sodipodi:docname="logo.svg"
   inkscape:version="1.1 (c68e22c387, 2021-05-23)"
   xmlns:inkscape="http://www.inkscape.org/namespaces/inkscape"
   xmlns:sodipodi="http://sodipodi.sourceforge.net/DTD/sodipodi-0.dtd"
   xmlns="http://www.w3.org/2000/svg"
   xmlns:svg="http://www.w3.org/2000/svg">
  <defs
     id="defs49" />
  <sodipodi:namedview
     id="namedview47"
     pagecolor="#ffffff"
     bordercolor="#666666"
     borderopacity="1.0"
     inkscape:pageshadow="2"
     inkscape:pageopacity="0.0"
     inkscape:pagecheckerboard="0"
     showgrid="false"
     inkscape:zoom="1.1146444"
     inkscape:cx="335.08444"
     inkscape:cy="237.29541"
     inkscape:window-width="1064"
     inkscape:window-height="1267"
     inkscape:window-x="0"
     inkscape:window-y="567"
     inkscape:window-maximized="0"
     inkscape:current-layer="layer3" />
  <g
     inkscape:groupmode="layer"
     id="layer2"
     inkscape:label="Layer 2"
     style="display:none">
    <path
       style="fill:#00d8ff;fill-opacity:1;stroke-width:0.931977"
       d="m 250.2358,366.35083 c -53.1642,-9.45945 -93.56098,-48.98488 -104.06379,-101.81918 -2.29289,-11.53437 -2.26779,-35.1604 0.0489,-45.98306 11.21072,-52.37297 48.3019,-89.90351 99.60326,-100.78311 12.53554,-2.65845 34.46881,-2.87716 46.6992,-0.46569 18.08253,3.56535 33.3433,9.82175 48.38807,19.83746 28.72525,19.12317 48.53038,50.47069 54.37215,86.06014 1.77663,10.82371 1.28107,32.42832 -0.98362,42.88202 -5.39251,24.89151 -16.00072,44.95855 -33.21476,62.83079 -17.50387,18.17314 -36.96271,29.38242 -61.8424,35.62437 -7.81081,1.95961 -12.15233,2.41709 -25.70754,2.70888 -10.96469,0.23602 -18.60028,-0.0565 -23.29943,-0.89262 z"
       id="path21102"
       transform="scale(0.99970312)" />
    <path
       style="fill:#00d8ff;fill-opacity:1;stroke-width:0.931977"
       d=""
       id="path21178"
       transform="scale(0.99970312)" />
    <path
       style="fill:#00d8ff;fill-opacity:1;stroke-width:0.613837"
       d="m 249.21802,365.78451 c -28.83448,-5.12737 -56.39123,-21.0958 -75.10223,-43.51983 -12.96837,-15.54183 -22.81073,-35.58372 -27.02336,-55.02735 -3.10255,-14.32003 -3.00123,-38.62747 0.2164,-51.91591 3.57226,-14.75304 10.94465,-31.94649 18.62962,-43.44692 16.1511,-24.16983 38.80182,-41.21685 66.73145,-50.22234 9.56786,-3.08501 17.79513,-4.62783 28.64302,-5.3713 14.45078,-0.99039 26.18106,-0.0478 38.60764,3.10222 49.85396,12.63766 85.52526,51.41586 94.87004,103.13301 1.26738,7.01411 1.42605,28.6435 0.27018,36.83025 -2.28932,16.21477 -9.46353,35.51333 -18.19098,48.9336 -10.26274,15.78109 -24.38994,30.02792 -39.33188,39.66496 -13.55186,8.74049 -33.86728,16.30951 -48.80102,18.18204 -7.54948,0.94662 -33.53599,0.72146 -39.51888,-0.34243 z"
       id="path21648"
       transform="scale(0.99970312)" />
  </g>
  <g
     inkscape:groupmode="layer"
     id="layer3"
     inkscape:label="Layer 3">
    <path
       style="display:inline;fill:#00d8ff;fill-opacity:1;stroke-width:0.9317"
       d="m 413.27049,119.56982 c -15.47546,-5.0938 -27.59226,-19.51159 -29.46403,-35.059287 -3.1283,-25.985 16.92018,-48.9427 42.69245,-48.8875 23.16049,0.05 42.89538,20.122 42.89538,43.629 0,15.5879 -9.79173,30.611387 -24.7789,38.018387 -6.70976,3.3162 -7.82918,3.573 -16.5969,3.8076 -7.22911,0.1934 -10.63734,-0.1551 -14.748,-1.5082 z"
       id="path21217" />
    <path
       style="display:inline;fill:#00d8ff;fill-opacity:1;stroke-width:0.9317"
       d="m 339.42499,473.27412 c -0.22075,-0.6383 -1.92647,-6.3731 -3.79047,-12.7439 -1.86401,-6.3708 -3.57698,-12.0729 -3.8066,-12.6713 -0.2579,-0.6721 3.32039,-2.4197 9.36031,-4.5716 34.4138,-12.261 68.31277,-35.6562 91.09358,-62.8676 55.23486,-65.9775 65.84905,-156.5043 27.32895,-233.0845 l -4.96146,-9.8637 9.00297,-5.1644 c 4.95164,-2.8404 10.54238,-6.0753 12.42387,-7.1888 l 3.42088,-2.0244 3.55228,6.3379 c 7.63564,13.6234 17.10348,38.3816 21.68445,56.7044 4.97998,19.9186 6.06905,30.1911 6.06905,57.2449 0,27.6169 -1.08905,37.4704 -6.50113,58.821 -16.48817,65.0454 -60.00302,120.805 -119.6921,153.3725 -15.56886,8.4946 -44.45478,19.8097 -45.18458,17.6995 z"
       id="path21256" />
    <path
       style="display:inline;fill:#00d8ff;fill-opacity:1;stroke-width:0.9317"
       d="m 52.458438,177.96162 c -6.661657,-2.0528 -12.245443,-3.8542 -12.408414,-4.0032 -1.158887,-1.0598 7.785211,-24.1042 14.641135,-37.7228 C 79.16088,87.629133 116.00908,51.003633 164.72832,26.863433 196.04843,11.344532 226.82606,3.6800316 263.02269,2.3855316 c 36.85166,-1.3179 74.33633,6.1398001 106.46655,21.1818014 l 9.56973,4.4801 -6.21871,11.9347 c -3.42029,6.564 -6.49767,12.2569 -6.83863,12.6508 -0.34096,0.3939 -3.81738,-0.7611 -7.72539,-2.5667 -16.81567,-7.7693 -38.23326,-14.0048 -58.03211,-16.8954 -15.1946,-2.2183 -44.34108,-2.2183 -59.53566,0 -60.27878,8.8005 -113.06715,42.1438 -146.94446,92.816087 -8.11367,12.1361 -18.888993,33.702 -23.159641,46.3521 -2.245105,6.6502 -3.650618,9.5203 -4.628934,9.4523 -0.772692,-0.054 -6.85534,-1.777 -13.516997,-3.8297 z"
       id="path21295" />
    <path
       style="display:inline;fill:#00d8ff;fill-opacity:1;stroke-width:0.9317"
       d="m 33.184263,284.87002 c -16.310665,-4.4923 -28.8315041,-18.2619 -31.6729262,-34.8318 -3.170036,-18.4863 6.5552961,-36.8275 24.1343362,-45.5155 6.213798,-3.071 7.956704,-3.4992 15.604688,-3.8337 13.161909,-0.5757 22.657695,2.7738 31.828259,11.227 15.39711,14.1925 18.03237,37.6358 6.2295,55.4176 -9.7264,14.6534 -29.41389,22.1386 -46.123857,17.5364 z"
       id="path21334" />
    <path
       style="display:inline;fill:#00d8ff;fill-opacity:1;stroke-width:0.9317"
       d="m 190.81592,470.75312 c -60.82106,-21.9335 -108.63849,-64.5329 -136.521813,-121.624 -7.337587,-15.0237 -15.255583,-35.3391 -14.189185,-36.4055 0.700801,-0.7008 24.178199,-7.8029 25.863169,-7.8238 0.937583,-0.012 2.4282,2.9709 4.529051,9.0622 14.632058,42.4244 44.744538,80.7176 84.141008,106.9996 10.04814,6.7033 33.16063,18.1382 45.02892,22.2781 5.79256,2.0205 9.27755,3.7221 9.2127,4.498 -0.16028,1.9178 -7.11273,25.2249 -7.73348,25.9254 -0.30113,0.3399 -4.9498,-0.9696 -10.33037,-2.91 z"
       id="path21373" />
    <path
       style="display:inline;fill:#00d8ff;fill-opacity:1;stroke-width:0.9317"
       d="m 257.67655,510.83332 c -20.00765,-6.396 -33.22384,-27.6134 -29.65151,-47.6029 4.353,-24.3578 28.48399,-40.7721 51.97158,-35.3518 21.19472,4.8912 36.5253,27.1439 33.06919,48.0009 -2.72161,16.4244 -14.52661,30.152 -30.0963,34.9978 -7.2978,2.2714 -18.10891,2.2525 -25.29296,-0.044 z"
       id="path21412" />
    <path
       style="display:inline;fill:#00d8ff;fill-opacity:1;stroke-width:0.613655"
       d="m 249.42726,367.31222 c -6.53125,-1.1001 -18.6972,-4.64 -25.20549,-7.3342 -29.94944,-12.3976 -52.63391,-33.5217 -66.55547,-61.9776 -10.26988,-20.9918 -14.00322,-40.8036 -12.28122,-65.1733 1.12775,-15.9598 4.67751,-28.4827 12.8365,-45.2846 14.87275,-30.6278 40.43672,-52.8932 73.27226,-63.8179 10.78064,-3.5868 18.67367,-5.1098 30.51798,-5.8884 22.79708,-1.4986 43.31042,2.4901 63.50869,12.349 34.84266,17.0069 59.40514,48.5355 68.10991,87.4264 3.25333,14.535 3.38418,35.837 0.31147,50.7061 -2.78559,13.4796 -9.66177,30.3439 -16.92853,41.5182 -13.803,21.2254 -33.7424,38.7014 -54.65458,47.9024 -11.59129,5.1 -23.64978,8.6735 -33.33466,9.8786 -7.37478,0.9177 -33.53443,0.7163 -39.59686,-0.3047 z"
       id="path21687" />
  </g>
</svg>
